<svg width="442" height="77" viewBox="0 0 442 77" fill="none" xmlns="http://www.w3.org/2000/svg">
<g clip-path="url(#clip0_31_16)">
<rect width="430" height="58" transform="matrix(-1 0 0 1 430 19)" fill="#ECE5EE" fill-opacity="0.7"/>
<rect width="430" height="58" transform="matrix(-1 0 0 1 430 19)" fill="#ECE5EE" fill-opacity="0.7"/>
<path d="M14 62.5L-5.5 82L240 87.5L264 63.5L260 60.5L14 62.5Z" fill="url(#paint0_linear_31_16)"/>
<path d="M-3 79.5L13.5 63L20 13H-3V79.5Z" fill="url(#paint1_linear_31_16)"/>
<g opacity="0.4">
<path d="M332.5 82H385L412.875 54.125L405.5 40.5L398 46.5H385L387.5 40.5L332.5 82Z" fill="url(#paint2_linear_31_16)"/>
</g>
<rect x="16" y="8" width="245" height="52.1903" fill="white" fill-opacity="0.7" stroke="#1F3562" stroke-width="6"/>
<path d="M57.7421 26.7671H36.3822V32.236H51.1604V37.3792H36.3822V47.5435H31.239V21.6238H31.8225H36.3822H57.7421V26.7671Z" fill="#1F3562"/>
<path d="M89.7783 26.7671H68.4183V32.236H83.1966V37.3792H68.4183V42.3867H89.7783V47.5435H68.4183H63.8586H63.2751V21.6238H68.4183H89.7783V26.7671Z" fill="#1F3562"/>
<path d="M121.787 47.5435H113.821L104.756 39.8897H100.454V47.5435H95.3113V21.6238H112.682C114.319 21.6238 115.807 22.0355 117.146 22.8588C118.494 23.682 119.566 24.7858 120.362 26.17C121.168 27.5542 121.57 29.0831 121.57 30.7568C121.57 32.4305 121.172 33.9594 120.376 35.3436C119.58 36.7188 118.517 37.8134 117.187 38.6277C115.857 39.4419 114.369 39.8626 112.722 39.8897L121.787 47.5435ZM100.454 26.7535V34.7737H112.682C113.713 34.7737 114.595 34.3801 115.328 33.593C116.061 32.8059 116.427 31.8605 116.427 30.7568C116.427 29.6531 116.061 28.7122 115.328 27.9341C114.595 27.147 113.713 26.7535 112.682 26.7535H100.454Z" fill="#1F3562"/>
<path d="M151.218 21.5831H153.796V47.5028H148.653V31.2725L142.221 42.5088H138.896L132.463 31.2725V47.5028H127.32V21.5831H129.899H132.857L140.552 35.0451L148.26 21.5831H151.218Z" fill="#1F3562"/>
<path d="M185.71 21.6238L175.234 35.6015V47.5435H170.091V35.52L159.329 21.6238H165.843L172.669 30.4311L179.278 21.6238H185.71Z" fill="#1F3562"/>
<path d="M200.824 47.5435C202.633 47.5435 204.33 47.2088 205.913 46.5393C207.505 45.8608 208.899 44.9289 210.093 43.7438C211.296 42.5586 212.237 41.1835 212.915 39.6183C213.603 38.0441 213.947 36.3659 213.947 34.5837C213.947 32.7924 213.603 31.1141 212.915 29.549C212.237 27.9839 211.296 26.6087 210.093 25.4236C208.899 24.2384 207.505 23.3111 205.913 22.6416C204.33 21.9631 202.633 21.6238 200.824 21.6238C199.015 21.6238 197.314 21.9631 195.722 22.6416C194.138 23.3111 192.745 24.2384 191.542 25.4236C190.348 26.6087 189.407 27.9839 188.719 29.549C188.041 31.1141 187.701 32.7924 187.701 34.5837C187.701 36.3659 188.041 38.0441 188.719 39.6183C189.407 41.1835 190.348 42.5586 191.542 43.7438C192.745 44.9289 194.138 45.8608 195.722 46.5393C197.314 47.2088 199.015 47.5435 200.824 47.5435ZM200.824 26.7942C202.272 26.7942 203.592 27.147 204.787 27.8527C205.981 28.5493 206.931 29.4902 207.636 30.6754C208.351 31.8515 208.709 33.1542 208.709 34.5837C208.709 36.0131 208.351 37.3204 207.636 38.5055C206.931 39.6817 205.981 40.6225 204.787 41.3282C203.592 42.0248 202.272 42.3731 200.824 42.3731C199.377 42.3731 198.056 42.0248 196.861 41.3282C195.667 40.6225 194.713 39.6817 193.998 38.5055C193.292 37.3204 192.94 36.0131 192.94 34.5837C192.94 33.1542 193.292 31.8515 193.998 30.6754C194.713 29.4902 195.667 28.5493 196.861 27.8527C198.056 27.147 199.377 26.7942 200.824 26.7942Z" fill="#1F3562"/>
<path d="M240.799 21.6238H245.942V47.5435H243.364H240.039L224.609 28.8026V47.5435H219.466V21.6238H225.369L240.799 40.3647V21.6238Z" fill="#1F3562"/>
<path d="M294 44.5L304.5 34L306.5 36V40.5V50.5L299.5 53L296 50.5L294 48.5V44.5Z" fill="#BEA7E5" fill-opacity="0.28"/>
<circle cx="430" cy="15" r="12" fill="#34E8BD"/>
<path d="M295.488 23.5059V25H289.934V23.5059H291.92V14.7168H289.934V13.2227H295.488V14.7168H293.502V23.5059H295.488ZM300.177 16.2109V17.5996C300.365 17.3652 300.605 17.1309 300.898 16.8965C301.191 16.6504 301.519 16.4453 301.882 16.2812C302.257 16.1172 302.644 16.0352 303.043 16.0352C303.64 16.0352 304.185 16.1699 304.677 16.4395C305.17 16.6973 305.562 17.0957 305.855 17.6348C306.148 18.1621 306.295 18.8301 306.295 19.6387V25H304.853L304.836 19.7793C304.836 19.0176 304.666 18.4375 304.326 18.0391C303.998 17.6406 303.488 17.4414 302.797 17.4414C302.328 17.4414 301.859 17.6172 301.39 17.9688C300.933 18.3086 300.529 18.707 300.177 19.1641V25H298.736V16.2109H300.177ZM311.458 16.0352C311.974 16.0352 312.454 16.1113 312.9 16.2637C313.345 16.4043 313.667 16.5508 313.867 16.7031V18.25C313.62 18.0625 313.286 17.8809 312.865 17.7051C312.443 17.5293 312.009 17.4414 311.564 17.4414C311.013 17.4414 310.597 17.5703 310.316 17.8281C310.046 18.0859 309.911 18.3555 309.911 18.6367C309.911 18.8594 309.988 19.0879 310.14 19.3223C310.304 19.5449 310.585 19.7266 310.984 19.8672L312.46 20.3945C313.035 20.5938 313.462 20.8809 313.744 21.2559C314.025 21.6309 314.165 22.0703 314.165 22.5742C314.165 23.0664 314.025 23.5176 313.744 23.9277C313.474 24.3379 313.093 24.666 312.601 24.9121C312.12 25.1465 311.564 25.2637 310.931 25.2637C310.591 25.2637 310.234 25.2168 309.859 25.123C309.495 25.041 309.167 24.9414 308.874 24.8242C308.581 24.6953 308.365 24.584 308.224 24.4902V22.9434C308.388 23.0605 308.617 23.1953 308.91 23.3477C309.214 23.4883 309.536 23.6113 309.876 23.7168C310.216 23.8105 310.533 23.8574 310.826 23.8574C311.376 23.8574 311.81 23.7344 312.126 23.4883C312.454 23.2422 312.619 22.9375 312.619 22.5742C312.619 22.293 312.507 22.0703 312.285 21.9062C312.074 21.7422 311.763 21.584 311.353 21.4316L310.052 20.957C309.372 20.6992 308.921 20.377 308.699 19.9902C308.476 19.5918 308.365 19.1406 308.365 18.6367C308.365 17.8867 308.646 17.2656 309.208 16.7734C309.771 16.2812 310.521 16.0352 311.458 16.0352ZM317.589 11.9922C317.929 11.9922 318.21 12.1152 318.433 12.3613C318.667 12.5957 318.784 12.8711 318.784 13.1875C318.784 13.4922 318.667 13.7676 318.433 14.0137C318.21 14.2598 317.929 14.3828 317.589 14.3828C317.249 14.3828 316.962 14.2598 316.728 14.0137C316.505 13.7676 316.394 13.4922 316.394 13.1875C316.394 12.8711 316.505 12.5957 316.728 12.3613C316.962 12.1152 317.249 11.9922 317.589 11.9922ZM318.485 16.2109V25H317.044V17.5645H315.655V16.2109H318.485ZM329.362 12.3438V25H327.921V23.5059C327.616 23.9746 327.2 24.3848 326.673 24.7363C326.157 25.0879 325.565 25.2637 324.897 25.2637C324.147 25.2637 323.462 25.0762 322.841 24.7012C322.219 24.3145 321.721 23.7812 321.346 23.1016C320.983 22.4219 320.801 21.6367 320.801 20.7461C320.801 19.7734 320.983 18.9355 321.346 18.2324C321.721 17.5293 322.231 16.9902 322.876 16.6152C323.52 16.2285 324.241 16.0352 325.038 16.0352C325.542 16.0352 326.051 16.1582 326.567 16.4043C327.094 16.6387 327.546 16.9668 327.921 17.3887V12.3438H329.362ZM325.301 17.4766C324.669 17.4766 324.13 17.6348 323.684 17.9512C323.239 18.2559 322.893 18.6543 322.647 19.1465C322.413 19.6387 322.296 20.1719 322.296 20.7461C322.296 21.3086 322.413 21.8301 322.647 22.3105C322.882 22.7793 323.21 23.1543 323.632 23.4355C324.065 23.7168 324.563 23.8574 325.126 23.8574C325.665 23.8574 326.145 23.7168 326.567 23.4355C326.989 23.1543 327.323 22.7676 327.569 22.2754C327.815 21.7715 327.932 21.209 327.921 20.5879L327.903 18.9004C327.54 18.4434 327.147 18.0918 326.725 17.8457C326.315 17.5996 325.841 17.4766 325.301 17.4766ZM335.791 16.0352C336.694 16.0352 337.444 16.2227 338.041 16.5977C338.639 16.9727 339.084 17.4824 339.377 18.127C339.682 18.7715 339.834 19.498 339.834 20.3066V21.168H333.084C333.155 21.6602 333.325 22.1113 333.594 22.5215C333.864 22.9316 334.215 23.2598 334.649 23.5059C335.082 23.7402 335.58 23.8574 336.143 23.8574C336.776 23.8574 337.368 23.6992 337.918 23.3828C338.469 23.0547 338.932 22.6973 339.307 22.3105L339.289 23.875C339.125 24.0742 338.879 24.2852 338.551 24.5078C338.235 24.7188 337.866 24.8945 337.444 25.0352C337.034 25.1875 336.6 25.2637 336.143 25.2637C335.252 25.2637 334.461 25.0527 333.77 24.6309C333.079 24.209 332.534 23.6523 332.135 22.9609C331.748 22.2578 331.555 21.4902 331.555 20.6582C331.555 19.8262 331.737 19.0586 332.1 18.3555C332.463 17.6523 332.961 17.0898 333.594 16.668C334.239 16.2461 334.971 16.0352 335.791 16.0352ZM335.791 17.4414C335.065 17.4414 334.467 17.6875 333.998 18.1797C333.53 18.6602 333.237 19.2461 333.12 19.9375H338.411C338.352 19.3633 338.188 18.8945 337.918 18.5312C337.661 18.168 337.344 17.8984 336.969 17.7227C336.594 17.5352 336.202 17.4414 335.791 17.4414ZM343.469 16.2109V17.9688C343.809 17.3828 344.219 16.9141 344.699 16.5625C345.18 16.2109 345.672 16.0352 346.176 16.0352C346.516 16.0352 346.82 16.0938 347.09 16.2109V17.8809C346.715 17.6582 346.34 17.5469 345.965 17.5469C345.367 17.5469 344.881 17.7578 344.506 18.1797C344.143 18.6016 343.797 19.1055 343.469 19.6914V25H342.027V16.2109H343.469Z" fill="#1F3562"/>
<path d="M308.906 34V46.7188C308.906 48.5312 308.5 50.0938 307.688 51.4062C306.896 52.6979 305.812 53.6979 304.438 54.4062C303.083 55.0938 301.562 55.4375 299.875 55.4375C298.188 55.4375 296.656 55.0938 295.281 54.4062C293.906 53.6979 292.812 52.6979 292 51.4062C291.208 50.0938 290.812 48.5312 290.812 46.7188V34H295.156V46.4688C295.156 48.0729 295.583 49.2812 296.438 50.0938C297.312 50.8854 298.458 51.2708 299.875 51.25C301.271 51.25 302.406 50.8542 303.281 50.0625C304.156 49.2708 304.594 48.0729 304.594 46.4688V34H308.906ZM322.868 38.8125C324.118 38.8125 325.274 39.1354 326.336 39.7812C327.42 40.4062 328.284 41.3333 328.93 42.5625C329.597 43.7708 329.93 45.25 329.93 47C329.93 48.75 329.597 50.2604 328.93 51.5312C328.284 52.8021 327.399 53.7812 326.274 54.4688C325.17 55.1354 323.94 55.4688 322.586 55.4688C321.711 55.4688 320.836 55.2604 319.961 54.8438C319.107 54.4062 318.388 53.8646 317.805 53.2188V62.5H313.836V39.2188H317.805V41.875C318.263 41.0208 318.93 40.3021 319.805 39.7188C320.68 39.1146 321.701 38.8125 322.868 38.8125ZM321.868 42.7812C321.159 42.7812 320.493 42.9688 319.868 43.3438C319.243 43.6979 318.732 44.2083 318.336 44.875C317.961 45.5417 317.784 46.3438 317.805 47.2812V49.5625C318.368 50.1458 318.972 50.6354 319.618 51.0312C320.284 51.4062 321.003 51.5938 321.774 51.5938C322.586 51.5938 323.295 51.375 323.899 50.9375C324.503 50.5 324.972 49.9375 325.305 49.25C325.638 48.5417 325.805 47.7917 325.805 47C325.805 45.8125 325.44 44.8125 324.711 44C324.003 43.1875 323.055 42.7812 321.868 42.7812ZM348.391 32.5V55H344.423V52.3438C343.964 53.1979 343.298 53.9375 342.423 54.5625C341.548 55.1667 340.527 55.4688 339.36 55.4688C338.089 55.4688 336.912 55.1458 335.829 54.5C334.766 53.8542 333.912 52.9167 333.266 51.6875C332.62 50.4583 332.298 48.9688 332.298 47.2188C332.298 45.4688 332.62 43.9688 333.266 42.7188C333.933 41.4688 334.818 40.5104 335.923 39.8438C337.048 39.1562 338.287 38.8125 339.641 38.8125C340.495 38.8125 341.36 39.0104 342.235 39.4062C343.11 39.8021 343.839 40.3333 344.423 41V32.5H348.391ZM340.454 42.7188C339.62 42.7188 338.902 42.9375 338.298 43.375C337.714 43.7917 337.256 44.3438 336.923 45.0312C336.589 45.6979 336.423 46.4271 336.423 47.2188C336.423 48.4062 336.777 49.4167 337.485 50.25C338.214 51.0833 339.173 51.5 340.36 51.5C341.068 51.5 341.725 51.3125 342.329 50.9375C342.954 50.5625 343.454 50.0417 343.829 49.375C344.225 48.6875 344.423 47.8646 344.423 46.9062V44.6562C343.86 44.0521 343.245 43.5833 342.579 43.25C341.933 42.8958 341.225 42.7188 340.454 42.7188ZM359.196 38.8125C360.05 38.8125 360.915 39.0104 361.79 39.4062C362.665 39.8021 363.394 40.3333 363.978 41V39.2188H367.946V55H363.978V52.3438C363.519 53.1979 362.853 53.9375 361.978 54.5625C361.103 55.1667 360.082 55.4688 358.915 55.4688C357.644 55.4688 356.467 55.1458 355.384 54.5C354.321 53.8542 353.467 52.9167 352.821 51.6875C352.175 50.4583 351.853 48.9688 351.853 47.2188C351.853 45.4688 352.175 43.9688 352.821 42.7188C353.488 41.4688 354.373 40.5104 355.478 39.8438C356.603 39.1562 357.842 38.8125 359.196 38.8125ZM360.009 42.6875C359.175 42.6875 358.457 42.9062 357.853 43.3438C357.269 43.7604 356.811 44.3125 356.478 45C356.144 45.6875 355.978 46.4271 355.978 47.2188C355.978 48.4062 356.332 49.4167 357.04 50.25C357.769 51.0833 358.728 51.5 359.915 51.5C360.623 51.5 361.28 51.3125 361.884 50.9375C362.509 50.5625 363.009 50.0417 363.384 49.375C363.78 48.6875 363.978 47.8646 363.978 46.9062V44.6562C363.415 44.0521 362.8 43.5729 362.134 43.2188C361.488 42.8646 360.78 42.6875 360.009 42.6875ZM378.22 34.625V39.2188H382.595V42.5312H378.22V49.3438C378.22 50.0521 378.376 50.6146 378.689 51.0312C379.022 51.4271 379.512 51.625 380.158 51.625C380.72 51.625 381.199 51.5625 381.595 51.4375C382.012 51.3125 382.397 51.1354 382.751 50.9062V54.0625C382.355 54.4583 381.855 54.7917 381.251 55.0625C380.668 55.3333 379.928 55.4688 379.033 55.4688C377.616 55.4688 376.46 55.0208 375.564 54.125C374.689 53.2083 374.251 51.9583 374.251 50.375V42.5312H371.408V40.5C372.408 40.1458 373.324 39.4792 374.158 38.5C375.012 37.5208 375.689 36.2292 376.189 34.625H378.22ZM393.244 38.8125C394.785 38.8125 396.108 39.1458 397.213 39.8125C398.338 40.4792 399.192 41.4062 399.775 42.5938C400.379 43.7604 400.681 45.1146 400.681 46.6562V48.3438H389.244C389.452 49.4062 389.973 50.2604 390.806 50.9062C391.64 51.5521 392.66 51.875 393.869 51.875C395.015 51.875 396.056 51.6458 396.994 51.1875C397.931 50.7292 398.681 50.2604 399.244 49.7812L399.213 53.4688C398.713 53.9062 397.963 54.3542 396.963 54.8125C395.983 55.25 394.9 55.4688 393.713 55.4688C392.15 55.4688 390.723 55.1146 389.431 54.4062C388.16 53.6979 387.14 52.7292 386.369 51.5C385.619 50.2708 385.244 48.8646 385.244 47.2812C385.244 45.7396 385.588 44.3333 386.275 43.0625C386.963 41.7917 387.91 40.7708 389.119 40C390.327 39.2083 391.702 38.8125 393.244 38.8125ZM393.15 42.2812C392.171 42.2812 391.348 42.5833 390.681 43.1875C390.015 43.7917 389.556 44.6042 389.306 45.625H396.869C396.785 44.5 396.369 43.6667 395.619 43.125C394.869 42.5625 394.046 42.2812 393.15 42.2812ZM409.08 38.8125C410.059 38.8125 410.965 38.9583 411.799 39.25C412.632 39.5417 413.278 39.875 413.736 40.25V43.75C413.236 43.4167 412.622 43.0938 411.893 42.7812C411.184 42.4688 410.445 42.3125 409.674 42.3125C408.924 42.3125 408.33 42.4792 407.893 42.8125C407.455 43.1458 407.236 43.5417 407.236 44C407.236 44.3333 407.361 44.6458 407.611 44.9375C407.861 45.2083 408.34 45.4479 409.049 45.6562L410.83 46.25C413.226 46.9583 414.424 48.3438 414.424 50.4062C414.424 51.3854 414.143 52.2604 413.58 53.0312C413.038 53.7812 412.299 54.375 411.361 54.8125C410.445 55.25 409.424 55.4688 408.299 55.4688C407.236 55.4688 406.205 55.3021 405.205 54.9688C404.205 54.6354 403.445 54.2708 402.924 53.875V50.4062C403.32 50.6771 403.799 50.9375 404.361 51.1875C404.924 51.4375 405.507 51.6458 406.111 51.8125C406.715 51.9583 407.268 52.0312 407.768 52.0312C408.559 52.0312 409.163 51.8958 409.58 51.625C410.018 51.3333 410.236 50.9271 410.236 50.4062C410.236 50.0104 410.059 49.6979 409.705 49.4688C409.351 49.2396 408.83 49.0104 408.143 48.7812L406.205 48.0938C404.997 47.6979 404.163 47.1354 403.705 46.4062C403.247 45.6771 403.018 44.8125 403.018 43.8125C403.018 42.8125 403.268 41.9479 403.768 41.2188C404.288 40.4688 405.007 39.8854 405.924 39.4688C406.84 39.0312 407.893 38.8125 409.08 38.8125Z" fill="#1F3562"/>
</g>
<defs>
<linearGradient id="paint0_linear_31_16" x1="130.5" y1="53.5" x2="130.5" y2="87.5" gradientUnits="userSpaceOnUse">
<stop stop-color="#D5C7EA"/>
<stop offset="1" stop-color="#D5C7EA" stop-opacity="0"/>
</linearGradient>
<linearGradient id="paint1_linear_31_16" x1="8.5" y1="13" x2="8.5" y2="79.5" gradientUnits="userSpaceOnUse">
<stop stop-color="#D5C7EA"/>
<stop offset="1" stop-color="#D5C7EA" stop-opacity="0"/>
</linearGradient>
<linearGradient id="paint2_linear_31_16" x1="419" y1="72" x2="372.75" y2="82" gradientUnits="userSpaceOnUse">
<stop stop-color="#D5C7EA"/>
<stop offset="1" stop-color="#D5C7EA" stop-opacity="0"/>
</linearGradient>
<clipPath id="clip0_31_16">
<rect width="442" height="77" fill="white"/>
</clipPath>
</defs>
</svg>
